<?xml version="1.0" encoding="utf-8"?>
<!-- Generator: Adobe Illustrator 27.5.0, SVG Export Plug-In . SVG Version: 6.00 Build 0)  -->
<svg version="1.1" xmlns="http://www.w3.org/2000/svg" xmlns:xlink="http://www.w3.org/1999/xlink" x="0px" y="0px"
	 viewBox="0 0 500 500" style="enable-background:new 0 0 500 500;" xml:space="preserve">
<g id="BACKGROUND">
	<rect style="fill:#F4F4F2;" width="500" height="500"/>
</g>
<g id="OBJECTS">
	<g>
		<path style="fill:#EDEDED;" d="M426.987,297.924c0.665-4.179,0.344-8.652-2.169-12.197c-1.551-2.62-4.333-4.085-6.942-5.459
			c-2.054-1.123-3.965-2.54-5.372-4.429c-1.117-1.401-1.976-3.296-2.565-4.859c-1.716-4.326-1.747-9.136-3.564-13.415
			c-1.083-1.981-2.821-4.208-5.272-4.228c-2.833-0.115-5.936,0.924-8.396,2.288c-3.687,2.393-7.012,5.328-10.07,8.475
			c-6.632,6.637-11.936,14.522-15.604,23.158c-4.413,11.56-7.555,23.541-9.014,35.847c-0.048,0.787-1.237,10.353-0.496,11.409
			c0.198,6.757,2.749,13.801,9.121,16.527c15.117,6.055,32.032-12.17,41.454-22.17C416.132,319.865,424.697,310.141,426.987,297.924
			z M407.351,328.533c-9.353,9.881-25.935,26.509-39.944,21.571c-6.795-2.845-8.725-10.578-8.609-17.763
			c-0.12-0.798,0.192-2.291-0.134-2.897c-0.148-0.126-0.285-0.18-0.405-0.18c0.587-10.264,2.47-20.314,5.301-30.159
			c3.461-12.558,9.478-24.323,18.546-33.633c2.431-2.679,5.11-5.122,7.93-7.385c1.706-1.302,3.382-2.623,5.526-3.208
			c1.378-0.416,2.759-0.971,4.215-0.989c0.796-0.014,1.625-0.062,2.397,0.154c0.91,0.422,1.732,1.062,2.362,1.844
			c2.815,3.37,2.51,8.255,3.729,12.41c0.607,2.299,1.452,4.559,2.745,6.565c1.613,2.335,3.784,4.278,6.271,5.643
			c2.332,1.27,4.833,2.445,6.526,4.567c1.01,1.491,1.913,3.109,2.386,4.808c0.606,2.522,0.497,5.242,0.134,7.872
			C423.999,309.712,415.443,319.64,407.351,328.533z"/>
		<path style="fill:#EDEDED;" d="M376.894,157.294c-3.055-19.938-11.631-43.131-26.446-57.246
			c-13.245-12.711-29.904-17.961-48.038-17.756c-18.56,0.713-36.919,6.123-53.129,15.142
			c-18.324,10.165-32.791,26.696-39.485,46.644c-6.254,15.249-12.721,56.658-26.253,63.917c-1.662,1.069-4.142,1.362-5.572-0.22
			c-0.154-0.151-0.316-0.34-0.551-0.329c-0.436-0.021-0.702,0.589-0.368,0.888c1.791,2.013,4.823,1.802,6.94,0.428
			c5.156-2.986,8.042-8.695,10.408-13.952c6.775-16.201,9.818-33.644,15.801-50.118c6.901-20.606,22.036-37.5,41.232-47.451
			c15.874-8.455,33.748-13.529,51.77-14.008c17.71-0.012,33.599,5.271,46.479,17.581c15.142,14.362,24.1,39.14,26.604,59.635
			c1.372,10.614,0.73,21.561-0.699,32.036c-1.763,12.902-4.843,25.664-9.068,37.992c-5.479,15.777-14.078,30.192-20.835,45.417
			c-9.008,19.397-14.525,40.585-14.053,62.066c0.102,8.073,1.215,16.168,4.124,23.736c2.171,5.986,5.328,11.684,10.025,16.058
			c0.244,0.247,0.482,0.533,0.855,0.525c0.277,0.003,0.529-0.153,0.674-0.387c0.425-0.828-0.567-1.262-0.988-1.821
			c-4.463-4.479-7.297-10.042-9.205-15.438c-2.97-8.274-3.837-14.916-4.284-23.432c-0.298-8.539,0.128-17.12,1.628-25.54
			c2.555-12.899,7.17-25.318,12.772-37.187c6.812-14.597,15.052-28.569,20.397-43.816c4.3-12.291,7.322-25.032,9.022-37.941
			C378.267,180.977,378.654,169.042,376.894,157.294z"/>
		<path style="fill:#EDEDED;" d="M170.141,221.157c-5.311,2.54-10.241,4.936-15.937,6.51c-15.556,4.319-31.821,4.701-47.61,7.794
			c-6.274,1.206-12.652,2.536-18.434,5.337c-6.646,3.452-13.028,8.252-16.191,15.235c-4.815,8.881-5.057,19.405-4.196,29.253
			c0.581,8.759,2.72,17.377,5.325,25.736c3.005,7.69,6.039,15.458,10.331,22.535c5.364,9.161,11.901,17.574,19.257,25.22
			c7.696,8.187,16.136,15.679,25.393,22.063c5.152,3.548,10.327,7.097,15.785,10.161c5.205,2.921,10.656,5.36,16.104,7.785
			c1.394,0.633,2.787,1.268,4.182,1.899c0.244,0.148,0.58,0.101,0.779-0.1c0.348-0.321,0.178-0.966-0.284-1.074
			c-10.57-3.971-20.836-8.822-30.171-15.215c-11.624-7.4-22.12-16.133-31.609-26.232c-9.959-10.355-18.436-22.069-24.106-35.363
			c-1.84-4.33-3.766-8.715-5.249-13.384c-1.811-6.305-3.38-12.99-4.285-19.157c-1.049-10.655-1.837-21.514,2.614-31.48
			c1.174-2.38,2.293-4.842,3.929-6.946c3.713-4.401,8.061-7.409,13.142-9.981c5.382-2.502,11.275-3.685,17.07-4.815
			c14.436-2.991,28.917-3.584,43.474-6.824c5.455-1.193,10.78-2.939,15.864-5.251c1.672-0.747,3.327-1.534,4.954-2.376
			c0.225-0.099,0.443-0.245,0.504-0.497C170.892,221.593,170.565,221.146,170.141,221.157z"/>
		<path style="fill:#EDEDED;" d="M166.301,120.37c-1.305-2.223-3.45-3.962-5.861-4.859c-1.873-0.407-3.902-0.203-5.685,0.491
			c-3.098,1.13-6.149,2.787-8.153,5.477c-10.774,14.197-18.512,45.054-35.43,50.824c-2.664,1.061-6.103,1.286-8.724,1.216
			c-4.552-0.077-9.092-0.657-13.535-1.644c-0.011-0.002-0.009-0.002-0.015-0.003c-0.247-0.065-0.512-0.148-0.761-0.066
			c-0.363,0.068-0.603,0.434-0.6,0.797c-0.406-0.009-0.811-0.014-1.216-0.016c-7.951,0.179-16.822,2.779-21.323,9.806
			c-5.502,8.525-3.382,21.997,4.064,29.451c0.168,0.18,0.341,0.356,0.513,0.534c1.215,2.095,3.262,3.568,5.215,4.948
			c5.848,4.085,13.147,5.177,20.141,4.792c4.014-0.344,8.042-0.798,11.951-1.805c4.791-1.559,9.356-3.775,13.822-6.09
			c9.47-5.51,17.884-12.81,25.009-21.113c6.491-7.637,11.745-16.221,15.255-25.625c4.632-11.677,8.108-24.141,7.705-36.799
			C168.526,127.149,168.03,123.513,166.301,120.37z M167.8,134.07c-0.338,14.81-4.925,28.972-11.207,42.277
			c-2.634,5.505-6.247,10.43-10.064,15.25c-5.782,7.154-12.556,13.523-20.171,18.723c-3.662,2.583-7.484,4.695-11.578,6.504
			c-3.345,1.467-6.696,3.09-10.333,3.669c-7.363,1.293-14.946,2.024-22.18-0.233c-1.921-0.568-3.721-1.401-5.413-2.405
			c0.005-0.071-0.02-0.144-0.1-0.176c-6.007-3.541-11.384-10.179-12.794-16.274c-2.159-7.95-0.398-16.741,5.163-21.288
			c4.23-3.791,11.85-5.835,17.643-5.563c0.155,0.021,0.233,0.01,0.21,0.002c0.114,0.001,0.227,0.003,0.341,0.004
			c-0.004,0-0.006,0-0.01,0c0.063,0.001,0.128,0.003,0.175,0.009c1.56-0.013,3.148,0.304,4.692,0.131
			c-0.916,0.092-0.112,0.064,0.231,0.104c0.033,0.001,0.051,0.001,0.076,0.002c0,0.001-0.003,0.001,0.002,0.003
			c0.473,0.084,0.921-0.29,0.977-0.748c0.323,0.046,0.645,0.097,0.969,0.135c5.798,0.634,11.879,0.991,17.507-1.223
			c10.068-3.917,15.369-14.2,20.094-23.261c5.063-9.31,9.157-19.315,15.361-27.677c1.422-1.838,3.21-3.025,5.535-4.153
			c1.634-0.687,3.311-1.479,5.116-1.472c2.537-0.306,4.654,1.325,6.067,2.843C167.642,123.166,167.579,129.328,167.8,134.07z"/>
	</g>
	<path style="fill:#B3BBCE;" d="M438.662,372.099c-0.043-1.914,0.074-3.904,0.475-5.365c0.042-0.145,0.282-0.813,0.341-0.961
		c0.086-0.206,0.316-0.451,0.35-0.688c-0.027-0.103-0.19-0.126-0.245-0.03c-0.753,1.077-1.413,1.873-1.978,3.128
		c-0.443,1.053-0.707,2.18-0.818,3.322c-1.134-0.319-2.267-0.576-3.284-0.783c0.157-4.753,0.527-9.11,2.632-13.6
		c0.688-1.379,1.403-2.755,2.313-4.019c0.325-0.561,0.933-1.044,1.132-1.631c-0.046-0.169-0.313-0.208-0.404-0.05
		c-2.466,2.955-4.027,6.441-5.247,9.988c-1.13,2.732-1.951,6.002-2.337,8.949c-0.167-0.031-0.335-0.051-0.502-0.081
		c-0.344-2.512-0.245-6.01,0.189-8.798c0.109-0.612,0.248-1.451,0.698-1.97c0.209-0.351-0.474-0.536-0.485-0.124
		c-0.015,0.937-0.558,2.095-0.791,3.158c-0.632,2.437-0.753,4.966-0.733,7.466c0,0.029-0.001,0.058-0.001,0.088
		c-0.769-0.128-1.541-0.224-2.312-0.332c-0.078-0.132-0.161-0.254-0.252-0.353c-0.155-0.204-0.267-0.449-0.452-0.631
		c-0.047-0.07-0.353-0.426-0.372-0.469c-0.313-0.298-0.384-0.82-0.763-1.034c-0.261-0.076-0.503,0.217-0.357,0.436
		c0.269,0.482,0.428,0.859,0.546,1.422c0.002,0.031,0.003,0.033,0.005,0.027c0.007,0.125,0.042,0.252,0.084,0.379
		c-9.345-1.151-18.844-0.969-28.248-0.678c-4.204,0.114-8.438,0.427-12.622,0.797c0.637-0.844,0.647-1.926-0.323-2.77
		c-5.536-4.475-27.611-3.652-44.521-2.133c0.009-2.916,0.279-6.292,0.522-7.79c0.064-0.344,0.273-1.628,0.56-2.328
		c0.057-0.307,0.385-0.637,0.292-0.932c-0.062-0.06-0.18-0.048-0.223,0.027c-1.876,3.883-3.195,6.616-3.386,11.23
		c-0.241,0.023-0.486,0.046-0.725,0.069c-0.083-0.328-0.165-0.648-0.238-0.941c-0.898-3.569-1.738-5.578-3.353-9.181
		c-0.459-0.928-0.935-1.872-1.526-2.728c-0.203-0.162-0.516,0.091-0.371,0.306c1.189,2.119,1.769,4.586,2.422,6.953
		c0.485,2.062,0.857,3.751,1.209,5.776c-0.908,0.093-1.78,0.187-2.635,0.281c-0.437-1.359-0.94-2.634-1.457-3.12
		c-0.082-0.11-0.163-0.173-0.134-0.137c-0.007-0.008-0.013-0.015-0.02-0.022c-0.01-0.012-0.005-0.008-0.023-0.028
		c-0.16-0.194-0.313-0.396-0.523-0.546c-0.201-0.234-0.583-0.968-1-1.173c-0.141-0.002-0.239,0.154-0.164,0.268
		c0.563,0.575,0.904,1.34,1.004,1.744c0.001,0.014,0.004,0.02,0.005,0.032c0-0.001,0-0.001-0.001-0.002
		c0,0.061,0.001,0.125,0.021,0.183c0.031,0.113,0.064,0.227,0.09,0.341c-0.003-0.027-0.002-0.077,0-0.124
		c0.217,1.049,0.447,1.908,0.629,2.761c-3.581,0.41-6.571,0.808-8.594,1.119c-5.709,0.797-11.409,1.717-16.936,2.495
		c0.263-0.332,0.485-0.721,0.616-1.119c1.588-4.721-5.216-6.382-11.394-7.047c-0.207-1.623-0.081-3.053,0.254-4.434
		c0.102-0.583,0.48-0.854,0.507-1.45c-0.086-0.331-0.605-0.398-0.779-0.096c-0.902,1.627-1.273,3.444-1.628,5.231
		c-0.033,0.202-0.074,0.393-0.116,0.581c-0.652-0.054-1.287-0.098-1.891-0.136c-0.194-2.345-0.689-4.693-1.541-6.758
		c-0.341-0.544-0.446-1.288-0.888-1.762c-0.15-0.043-0.289,0.124-0.205,0.25c1.244,2.432,1.119,5.244,1.007,8.18
		c-1.046-0.052-1.943-0.089-2.596-0.129c-4.416-0.161-8.963-0.285-13.319-0.057c-0.829,0.019-1.657,0.038-2.486,0.038
		c-6.488,0.161-12.965,0.503-19.432,1.091c-12.45,1.176-24.97,2.258-37.167,4.99c-2.23,0.542-4.401,1.285-6.532,2.118
		c-0.026-0.148-0.065-0.294-0.085-0.444c0.001-1.131,0.206-3.533,0.415-4.741c0.177-0.898,0.482-1.486,0.839-2.197
		c0.072-0.345-0.478-0.525-0.656-0.213c-1.413,2.474-1.699,5.309-1.742,8.086c-0.141,0.058-0.285,0.112-0.426,0.171
		c-0.469,0.222-0.957,0.441-1.442,0.672c-0.576-3.935-1.482-7.526-2.991-11.33c-0.333-0.791-0.899-1.468-1.338-2.209
		c-0.167-0.204-0.274-0.486-0.499-0.631c-0.143-0.04-0.277,0.118-0.196,0.24c1.445,2.087,2.074,4.366,2.67,6.896
		c0.586,2.616,0.846,4.989,1.035,7.728c-0.418,0.247-0.809,0.524-1.166,0.833c-0.605-1.241-1.469-2.498-1.937-3.087
		c-0.082-0.309-0.497-0.972-0.869-0.974c-0.452-0.009-0.632,0.595-0.231,0.801c1.036,0.511,1.584,1.826,1.84,2.956
		c0.087,0.438,0.184,0.878,0.288,1.331c-0.079,0.119-0.167,0.231-0.236,0.359c-1.556,3.159,3.517,3.757,5.689,4.449
		c0.192,0.047,0.374,0.095,0.556,0.142c-0.141,0.048-0.283,0.104-0.424,0.142c-5.548,1.157-11.267,1.432-17.027,1.812
		c-2.872,0.183-5.742,0.382-8.612,0.578c-0.612-2.402-1.04-4.371-0.68-6.987c0.061-0.512,0.321-2.009,0.611-2.818
		c0.041-0.182,0.171-0.374,0.059-0.552c-0.138-0.237-0.552-0.19-0.62,0.076c-0.82,3.719-1.535,6.788-1.367,10.414
		c-0.454,0.031-0.908,0.06-1.362,0.091c-0.255-1.394-0.634-2.771-1.019-4.139c-0.179-0.57-2.686-9.616-3.139-7.661
		c1.81,3.419,2.272,7.022,2.295,10.916c-0.003,0.329,0,0.67,0.006,1.014c-0.646,0.046-1.291,0.098-1.937,0.144
		c-0.13-0.493-0.274-0.982-0.451-1.463c-0.238-0.774-0.48-1.555-0.911-2.256c-0.036-0.057-0.111-0.095-0.181-0.081
		c-0.124,0.008-0.199,0.155-0.133,0.254c0.657,1.079,1.024,2.359,1.205,3.582c-11.854,0.852-23.698,1.786-35.542,2.757
		c-3.001,0.275-6.023,0.569-9.034,0.873c-0.01,0-0.02,0.009-0.03,0.019c-0.182,0.066-0.343,0.161-0.515,0.237h-0.03
		c-2.729-0.104-5.608,1.157-8.317,2.969c-1.344,0.835-3.971,3.652-4.376,3.88c-1.213,0.835-1.263,0.683-2.647,1.063
		c-1.576,0.351-2.648,0.55-3.81,0.74c-4.456,0.716-8.836,1.796-13.165,3.031c-0.499-2.24-0.625-4.41-0.654-6.993
		c-0.047-2.792,0.113-5.805,0.927-8.197c0.035-0.154,0.237-0.375,0.306-0.704c0.008-0.397-0.639-0.491-0.744-0.095
		c-1.544,4.823-2.438,10.431-1.854,15.705c0.028,0.279,0.065,0.557,0.101,0.835c-0.135,0.04-0.272,0.076-0.407,0.117
		c-0.52,0.164-1.041,0.327-1.562,0.491c-0.557-3.352-1.58-6.617-2.71-9.838c-1.064-3.151-2.071-6.026-3.658-8.905
		c-0.214-0.416-2.407-4.445-2.452-2.772c2.081,2.54,3.085,5.275,3.998,8.341c1.497,4.904,1.995,9.132,2.615,12.97
		c0.058,0.32,0.102,0.6,0.142,0.866c-0.728,0.238-1.453,0.483-2.174,0.739c-0.012-0.032-0.017-0.066-0.03-0.098
		c-0.821-2.101-1.898-2.997-3.041-4.624c-0.561-0.565-0.988-1.658-1.907-2.049c-0.319-0.009-0.496,0.389-0.262,0.595
		c1.125,1.052,1.932,2.491,2.269,4.005c0,0.006-0.001,0.004-0.001,0.01c0.113,1.13,0.232,1.225,0.248,1.896
		c-0.026,0.099,0.064,0.398,0.094,0.578c0.031,0.218,0.082,0.431,0.127,0.646c-1.15,0.47-2.283,0.977-3.378,1.56
		c-1.445,0.711-3.335,2.447-2.718,3.918c-0.364,0.152-0.505,0.721-0.071,0.93c5.426,2.846,11.864,3.263,17.896,4.231
		c12.076,1.518,24.293,1.764,36.46,1.878c25.89,0.256,51.112-1.413,75.931-5.739c7.246-1.319,14.491-2.855,21.423-5.265
		c2.961-0.996,7.448-2.751,8.893-4.477c3.8-2.979,2.223-5.91-0.748-7.807c8.771,0.797,17.533,1.679,26.334,2.087
		c13.703,0.436,27.446,0.55,41.129-0.342c8.67-0.56,17.341-1.47,25.88-3.064c5.639-1.148,11.338-2.552,16.522-4.961
		c-0.384,1.205-0.313,2.504,0.495,3.614c3.688,4.866,10.863,5.141,16.664,5.625c8.054,0.484,16.118,0.076,24.131-0.712
		c3.739-0.37,7.478-0.816,11.197-1.328c15.562-1.632,41.553-5.644,41.846-13.499C443.678,374.443,441.365,373.063,438.662,372.099z"
		/>
	<path style="fill:#6A656B;" d="M430.856,166.131c-0.493-0.589-1.299-1.68-2.087-2.462c-0.161-0.141-0.278-0.396-0.528-0.404
		c0,0,0,0-0.009,0c-0.296-0.396-0.618-0.73-1.066-0.915c-0.233-0.106-0.501-0.141-0.761-0.123c-0.045,0-0.188,0.018-0.26,0.035
		c-0.188-0.009-0.367,0-0.556,0.026c-0.287-0.325-0.618-0.519-0.967-0.616c-0.752,0.009-1.469-0.062-2.284-0.255
		c-0.197-0.105-0.376-0.044-0.475,0.07c-0.466-0.325-0.976-0.545-1.576-0.589c-0.054-0.035-1.254,0.114-1.568,0.176
		c-1.12,0.158-1.828,0.193-2.956,0.449c-0.322,0.114-0.663,0.264-0.878,0.528c-0.546,1.047-1.075,1.557-1.603,2.586
		c-2.007,0.519-1.702,1.732-1.989,2.867c-0.224,0.906-0.627,2.163-0.869,2.84c-0.269,0.739-0.717,1.53-0.43,2.339
		c0.636,1.917,2.221,3.377,2.822,4.758c0,0,0.036,0.105,0.081,0.229c-0.26,0.457-1.093,1.469-1.962,2.436
		c-0.762-0.317-1.496-0.554-2.123-0.598c-0.134-0.07-0.573,0.018-0.708,0.114c-0.009,0.009-0.009,0.009-0.018,0.018
		c-0.018,0.009-0.036,0.018-0.045,0.026c-0.009,0.009-0.018,0.009-0.018,0.009v0.009c-0.286,0.141-0.457,0.457-0.573,0.748
		c-0.009,0.009-0.009,0.018-0.009,0.018s0,0,0,0.009l-0.009,0.009c-0.099,0.238-0.17,0.299-0.26,0.422
		c-0.018,0.009-0.045,0.027-0.098,0.079c-0.125,0.15-1.021,0.326-1.523,0.563c-0.797,0.317-2.419,1.548-2.911,1.627
		c-0.645,0.053-1.281-0.343-2.293-0.114c-0.045,0.018-0.08,0.035-0.116,0.044c-1.173-1.222-2.392-2.41-3.565-3.632
		c-0.34-0.334-1.245-0.756-1.621-0.897c-0.099-0.035-0.179-0.097-0.278-0.132l-0.009-0.009c0,0-0.009-0.009-0.027-0.018
		c-1.361-1.126-2.06-3.65-3.251-4.679c-1.191-0.536-1.989-0.281-3.162-0.581c-3.359-0.774-6.073-3.386-9.163-5.004
		c-1.039-0.58-2.078-1.196-3.198-1.627c-1.012-0.361-2.015-0.66-2.813-1.038c-3.852-1.961-7.327-4.511-11.026-6.736
		c-0.26-0.158-0.493-0.281-0.699-0.378c-1.066-1.249-2.15-2.489-3.028-3.597c-0.349-0.405-0.851-1.478-1.308-1.68
		c-0.609-0.273-0.994-0.211-1.308-0.396c-0.018-0.009-0.027-0.018-0.045-0.018c-0.018-0.026-0.045-0.044-0.071-0.07
		c0-0.009-0.027-0.035-0.072-0.07c-0.009-0.009-0.009-0.009-0.018-0.018c-0.349-0.396-0.708-0.493-1.263-0.651
		c-1.281-0.114-2.571,0.237-3.861,0.273c-0.251-0.308-0.51-0.607-0.761-0.924c-0.457-0.572-0.896-1.117-1.326-1.688
		c-0.009-0.026-0.009-0.044-0.027-0.07c-0.116-0.141-0.233-0.273-0.331-0.413c-0.126-0.158-0.242-0.317-0.367-0.493
		c-0.018-0.026-0.045-0.035-0.072-0.044c-0.305-0.448-0.609-0.915-0.914-1.372c0.009-0.035,0.009-0.07-0.018-0.105
		c-0.529-0.792-0.959-1.627-1.191-2.392c-0.322-1.873-0.708-4.072-1.308-6.077c0.063-0.035,0.099-0.106,0.072-0.176
		c-0.089-0.255-0.188-0.501-0.278-0.748c-0.403-1.943-0.94-3.975-1.926-5.532c0.224,0.105,0.448,0.167,0.708,0.141
		c0.43-0.044,1.2-0.018,1.138-0.519c-0.009-0.018-0.018-0.026-0.018-0.035c-0.036-0.334-0.43-0.475-0.734-0.695
		c-1.523-0.871-3.296-2.717-4.559-3.65c-0.206-0.114-0.403-0.194-0.582-0.255c-0.143-0.07-0.287-0.132-0.43-0.176
		c-0.071-0.009-0.143-0.026-0.215-0.035c0.394-0.123,0.779-0.29,1.102-0.545c0.116-0.097,0.26-0.176,0.331-0.308
		c0.045-0.105,0-0.202-0.072-0.255c0.009-0.079-0.063-0.158-0.152-0.132c-0.081,0.017-0.152,0.062-0.233,0.053
		c-0.493-0.009-1.173,0.026-1.765,0c-1.451-0.009-3.43-1.099-5.123-1.504c-1.147-0.273-2.329-0.035-3.422,0.308
		c-1.352,0.431-2.606,1.108-3.986,1.442c-0.761,0.202-1.594,0.176-2.32,0.501c-0.636,0.29-1.245,0.712-1.693,1.249
		c0.233-0.536,0.457-1.108,0.591-1.68c0.018-0.106,0.045-0.22,0.018-0.317c-0.027-0.062-0.063-0.079-0.116-0.088
		c-0.081-0.106-0.26-0.132-0.331,0c-0.654,0.73-1.442,1.319-2.159,1.979c-1.675,1.504-3.637,2.814-4.792,4.767
		c-0.708,1.337-0.976,2.84-1.505,4.247c-0.538,1.346-0.77,2.823-0.511,4.256c0.224,0.888,0.609,1.618,1.173,2.392
		c0.26,0.325,0.502,0.563,0.681,0.809c0.009,0,0.009,0,0.009,0c0.108,2.243,0.296,4.476,0.564,6.701
		c0.125,0.668,0.412,0.932,0.941,1.284c0.242,0.105,0.484,0.185,0.779,0.29c0,0.695,0.206,1.372,0.26,2.049
		c0.099,0.536,0.027,1.275,0.251,1.838c0.054,0.141,0.367,0.378,0.672,0.325c0.529-0.07,1.29-0.123,1.899-0.352
		c0.036-0.009,0.081-0.026,0.125-0.044c0.054,0.607-0.027,1.205,0.188,1.618c0.188,0.246,0.493,0.413,0.797,0.492
		c-0.072,0.317-0.197,0.528-0.054,0.862c0.17,0.185,0.403,0.396,0.672,0.616c-0.708,0.264-1.541,0.484-2.284,0.475
		c-0.806,0.123-1.469,0.704-2.087,0.695c-0.412-0.044-0.663-0.053-0.994,0.106l-0.009,0.009c-0.063,0.009-0.116,0.026-0.17,0.044
		c-0.251,0.097-0.412,0.176-0.788,0.361c-0.546,0.334-0.896,0.624-1.299,0.95c-0.278,0.15-0.573,0.343-0.654,0.361
		c-0.018,0.009-0.081,0.018-0.09,0.018c-0.009,0-0.009,0-0.009,0c-0.09-0.009-0.099-0.009-0.296-0.053
		c-0.869-0.07-1.818,0.15-2.517,0.501c-0.51,0.343-0.869,0.756-1.281,1.302c-0.036,0.061-0.045,0.079-0.045,0.088
		c-0.027,0.026-0.063,0.053-0.081,0.088c-0.17,0.026-0.618,0.009-1.093,0.035h-0.322c-0.466,0-0.923-0.009-1.048,0.044
		c-0.618,0.237-1.577,0.932-1.988,1.179c-0.09,0.044-0.43-0.044-0.636-0.123c-0.063-0.238-0.34-0.369-0.511-0.536
		c-0.448-0.361-0.887-0.739-1.406-0.959c-0.573-0.229-1.612-0.202-1.827-0.246c-0.761-0.07-0.932-0.554-1.765-1.055
		c-0.466-0.308-1.675-0.317-2.472-0.167c-0.555,0.105-1.191,0.237-1.783,0.422c-0.045-0.009-0.09-0.009-0.143-0.026
		c-0.009,0-0.009,0-0.009,0c-0.009,0-0.009,0-0.018,0c-0.009-0.009-0.018-0.009-0.027-0.009c-0.045-0.009-0.108-0.035-0.143-0.044
		c-0.045-0.026-0.089-0.053-0.143-0.062c-0.108-0.009-0.036-0.018-0.403-0.079c-3.126-0.545-7.578,0.756-11.143-0.053
		c-0.099-0.018-0.466-0.097-0.734-0.018c-0.018,0-0.036,0.009-0.054,0.018c-0.027,0-0.063,0.009-0.089,0.018
		c-0.305-0.062-0.842,0.791-0.931,1.372c-0.036,0.132-0.072,0.29-0.108,0.449h-0.018c-0.116,0.853-0.215,1.715-0.224,2.603
		c-0.958,0.308-1.917,0.633-2.866,0.95c-2.75,0.844-5.554,1.451-8.357,2.093c-3.198,1.108-6.198,2.814-9.271,4.248
		c-1.353,0.809-3.019,1.249-4.058,2.462c-0.054,0.053-0.081,0.088-0.107,0.132c-0.054-0.009-0.108-0.018-0.161,0
		c-0.206,0.053-0.304,0.273-0.43,0.422c-0.26,0.361-0.305,0.431-0.457,0.809c-0.108,0.238-0.314,1.073-0.403,1.539
		c-0.09,0.22-0.027,0.123-0.134,0.281c-0.34,0.413-0.591,0.589-0.931,1.249c-0.197,0.484-0.152,1.029-0.143,1.539
		c0,0.651,0.179,1.17,0.197,1.442c0.063,0.202-0.036,0.273,0.009,0.519c-0.045-0.123-0.045,0.492-0.116,0.704
		c-0.009,0.035-0.009,0.044-0.009,0.053c-0.009,0.035-0.018,0.07-0.027,0.097c-0.116,0.422,0.143,0.959,0.26,1.152
		c0.511,0.818,0.69,1.258,1.496,2.014l0.006,0.006c-0.001,0.001-0.003,0.002-0.02-0.013c0.007,0.006,0.017,0.013,0.026,0.02
		c0.002,0.002,0.003,0.003,0.005,0.005c0.009,0,0.018,0.009,0.018,0.018c0.045,0.026,0.081,0.062,0.116,0.097
		c0,0.009,0.009,0.009,0.009,0.018c0.063,0.123,0.054,0.281,0.134,0.396c0.099,0.369,0.188,0.712,0.197,0.941
		c0.045,0.36-0.018,0.747,0.161,1.082c0.197,0.361,0.636,0.58,0.842,0.756c0.233,0.176,0.475,0.378,0.779,0.449
		c0.949,0.185,1.872-0.211,2.795-0.369c1.066-0.229,2.159-0.352,3.225-0.58c1.263-0.281,2.678-0.519,3.475-1.618
		c0.34-0.668,0.546-1.583,0.905-2.207c0.493-0.985,1.057-1.346,1.675-2.401c0.322-0.765,0.537-1.565,0.725-2.374
		c0.331-0.097,0.681-0.387,0.949-0.563c0.269-0.22,0.394-0.431,0.547-0.536c0.018-0.018,0.063-0.053,0.09-0.062
		c0.009,0,0.009-0.009,0.018-0.009c0.054-0.018,0.099-0.044,0.152-0.053c0.054-0.018,0.134-0.035,0.188-0.044
		c2.974-0.378,6.691,0.079,10.391,0.73c0.089,0.299,0.188,0.598,0.278,0.897c0.027,0.097,0.054,0.202,0.09,0.299
		c0.511,2.014,1.129,4.186,1.451,5.98c0.045,1.372,0.287,3.175,1.173,4.687c0.179,0.264,0.251,0.343,0.627,0.361
		c0.09-0.009,0.17-0.026,0.242-0.053c0.027,0,0.063,0,0.134-0.009c1.353-0.132,2.212,0.193,3.565-0.097
		c0.806-0.325,1.272-0.66,2.293-1.222c0.322-0.202,0.672-0.422,0.815-0.519c0.009,0,0.009-0.009,0.009-0.009
		c0.099-0.035,0.188-0.07,0.296-0.105c0.806,0.026,1.299,0.246,2.239,0.29c0.699,0.035,1.469,0.009,2.051-0.413
		c0.394-0.352,0.502-0.581,0.788-0.827c0.179,0,0.376-0.053,0.591-0.07c0.967-0.114,1.496,0.141,2.49,0.44
		c0.609,0.132,1.773-0.106,2.114-0.132c1.093-0.114,2.624-0.132,3.422-0.246c0.537,0.141,1.29,0.888,2.114,1.143
		c0.806,0.255,2.275,0.026,3.35-0.009c0.869-0.017,1.729-0.061,2.598-0.097c-1.362,2.893-2.41,5.963-3.081,8.9
		c-0.134,0.282-0.251,0.554-0.394,0.827c-0.627,0.994,0.26,2.181,0.412,3.078c0.116,0.466-0.197,1.266-0.099,2.032
		c0.036,0.308,0.215,0.58,0.358,0.853c0.072,0.097,0.125,0.238,0.197,0.343c-0.367,0.545-0.717,1.108-0.967,1.715
		c-0.215,0.906-0.34,1.75-0.439,2.726c0,0.018,0,0.018,0,0.018c-0.063,0.229-0.036,0.501-0.027,0.73
		c0.036,0.211,0.072,0.519,0.251,0.651c0.009,0.009,0.009,0.018,0.036,0.044l0.027,0.026c0.027,0.088,0.018,0.15-0.018,0.202
		c-0.215,0.22-0.403,0.449-0.484,0.739c-0.009,0.035-0.009,0.035-0.009,0.035c0,0.009-0.009,0.009-0.009,0.027
		c-0.134,0.378-0.107,0.308-0.161,0.888c0.054,0.581,0.089,0.466-0.081,1.161c-0.305,1.389-0.779,2.542-1.55,3.738
		c-0.072,0.044-0.627,0.792-0.663,1.02c-0.125,0.343-0.134,0.747-0.009,1.099c-0.529,0.343-1.138,0.783-1.541,1.284
		c-0.645,0.897-1.603,2.102-1.953,3.157c-1.989,1.389-5.034,2.48-7.488,3.597c-1.818,0.783-4.273,1.68-6.557,2.102
		c-0.591,0.193-1.648,0.141-2.204,0.457c0.134-0.158-0.707,0.185-0.887,0.387c-1.102,1.557-3.619,3.438-5.357,5.197
		c-1.836,1.829,0.09,2.322,1.747,2.137c0.654-0.053,0.994,0,1.353,0.158c-6.01,1.829-11.546,4.538-17.261,7.528
		c-3.26,1.952-5.894,4.74-8.796,7.159c-1.361,1.17-2.069,1.812-3.287,2.629c-0.394,0.343-1.012,0.501-1.317,0.923
		c-1.657,1.135-3.798,2.867-4.049,2.911c-1.702,1.099-3.583,1.996-4.954,3.518c-1.818,2.137-2.32,3.72-3.216,6.27
		c-0.439,1.645-0.842,3.333-0.726,5.03c0.26,2.357,1.317,4.362,2.239,6.464c0.788,1.732,1.451,4.758,2.347,6.877
		c0.896,2.005,1.845,3.993,2.848,5.945c0.098,0.123,0.17,0.264,0.26,0.404c0.555,2.7,1.191,5.382,2.006,8.012
		c1.129,3.245,2.607,5.831,3.682,8.706c1.585,4.67,2.902,9.436,3.753,14.291c0.134,0.888,0.627,0.923,1.272,1.319
		c0.045,0.017,0.09,0.044,0.134,0.062c-0.018,0.123,0.027,0.246,0.143,0.317c0.958,0.431,1.979,0.633,3.019,0.712
		c0.143,1.425,0.34,2.797,0.564,4.019c0.027,0.194,0.036,0.387,0.045,0.581c-0.089,0.677-0.26,1.337-0.34,1.847
		c-0.286,0.536-0.295,0.572-0.466,1.047c-0.117,0.396-0.143,0.827-0.251,1.126c-0.188,0.343-0.475,0.686-0.967,1.161
		c-0.313,0.343-1.747,1.31-2.624,1.9c-2.311,1.926-4.183,4.072-6.808,5.479c-0.027,0-0.045-0.009-0.072,0
		c-1.2,0.334-2.123,1.196-3.234,1.697c-1.003,0.44-4.129,1.205-4.496,1.328c-0.009,0-0.009,0-0.009,0
		c-0.117-0.035-0.179,0-0.376,0.044c-0.054,0.018-0.081,0.035-0.098,0.044c-0.018,0-0.027,0.009-0.045,0.018
		c-0.314,0.22-0.34,0.66-0.161,0.906c-0.036,0.018-0.072,0.053-0.099,0.097c-0.134,0.194-0.161,0.44-0.17,0.668
		c0.018,0.536,0.134,1.126,0.484,1.565c0.027,0.018,0.054,0.044,0.09,0.07c-0.09,0.475,0.045,0.959,0.224,1.398
		c0.125,0.334,0.278,0.695,0.564,0.932c0.116,0.088,0.278,0.176,0.43,0.185c0.125,0.457,0.349,0.756,0.681,1.143
		c0.09,0.062,0.17,0.132,0.26,0.202c-0.134,0.361-0.009,0.8,0.188,1.152c0.081,0.264,0.224,0.519,0.43,0.721
		c0.009,0.009,0.018,0.009,0.027,0.018c0.188,0.264,0.394,0.501,0.681,0.677c0.269,0.194,0.573,0.334,0.905,0.396
		c0,0.009-0.009,0.017,0,0.026c0.09,0.272,0.6,0.229,0.958,0.264c1.111,0.044,2.239-0.123,3.269-0.545
		c0.734-0.229,2.356-1.108,3.09-1.46c0.09-0.018,0.546-0.229,0.824-0.361c1.433-0.246,2.804-0.739,4.031-1.495
		c1.997-1.31,3.825-2.955,6.055-3.843c1.012-0.422,2.105-0.862,3.323-0.862c1.039-0.062,2.132-0.044,3.225-0.044
		c0.779,0.132,1.675,0.264,2.436,0.202c1.021-0.079,1.988-0.457,2.983-0.695c0.743-0.229,1.541-0.44,2.159-0.923
		c0.86-0.668,1.433-1.627,1.818-2.621c0.26-0.774,0.421-1.609,0.296-2.418c-0.036-0.185-0.08-0.378-0.152-0.563
		c-0.027-0.607-0.179-1.196-0.546-1.732c-0.941-1.732-2.454-3.535-2.615-5.241c-0.421-3.773-0.278-7.581-0.582-11.362
		c1.182-0.589,2.338-1.249,3.431-1.979c1.89-1.363,3.511-2.805,5.294-4.687c1.899-2.128,3.69-4.23,6.028-5.699
		c1.711-1.143,3.663-1.996,4.989-3.614c0.287-0.361,0.376-0.378,0.555-0.792c0.108-0.097,0.179-0.237,0.125-0.396
		c-1.245-3.069-2.024-6.349-3.825-9.172c-1.209-1.627-2.311-2.55-3.296-3.984c-1.155-1.592-2.221-4.063-2.409-5.945
		c-0.036-0.237-0.045-0.598-0.063-0.651c0-0.026-0.009-0.088-0.009-0.123c-0.001-0.007-0.004-0.009-0.005-0.015
		c-0.002-0.017-0.002-0.017,0-0.001c-0.011-0.068-0.033-0.12-0.057-0.169c0.358-0.431,0.725-0.862,1.111-1.31
		c0.663-0.651,1.335-1.601,1.415-2.067c0.134-0.528,0.018-0.827,0.152-1.143c0.108-0.273,0.878-0.941,1.344-1.627
		c0.717-1.249,1.173-2.621,1.845-3.896c0.108-0.237,0.242-0.466,0.394-0.686c0.233-0.281,0.457-0.492,0.618-0.589
		c1.057-0.783,2.284-1.495,3.583-2.181c4.093-1.513,8.133-3.148,12.083-4.775c5.231-1.548,10.615-2.542,15.98-3.535
		c1.317-0.237,2.66-0.431,3.95-0.774c1.935,1.178,3.834,2.366,5.473,3.588c0.367,0.325,0.726,0.651,1.084,0.985
		c0.591,0.836,1.155,1.671,1.675,2.462c1.209,1.82,2.177,3.79,3.484,5.549c3.637,5.048,7.551,9.982,11.143,15.082
		c1.451,2.278,2.517,4.151,3.968,6.525c0.17,0.282,0.358,0.537,0.546,0.809c0.744,1.961,1.487,3.922,2.365,5.831
		c0.573,1.152,1.684,4.388,2.517,6.077c2.356,4.292,5.132,8.346,7.721,12.488c2.911,4.239,4.864,9.251,8.062,13.103
		c1.093,1.205,1.746,2.972,2.374,4.327c0.538,1.812,0.385,3.456-0.188,5.101c-0.376,1.24-0.528,2.322,0.161,3.219
		c0.26,0.369,0.618,0.659,0.976,0.932c0.027,0.044,0.063,0.097,0.116,0.141c0.152,0.106,0.313,0.211,0.466,0.317
		c1.048,0.844,2.087,1.715,3.287,2.339c0.367,0.185,0.744,0.352,1.129,0.501c0.161,0.097,0.323,0.193,0.493,0.29
		c0.761,0.44,1.621,0.818,2.526,0.686c1.737-0.237,3.878-1.17,5.383-1.275c3.637-0.519,7.327-0.334,10.973-0.642
		c0.331,2.137,1.335,4.679,1.415,6.341c0,0.44-0.152,0.888-0.233,1.363c-0.027,0.053-0.027,0.105-0.018,0.158
		c-0.86,1.662-2.714,2.911-4.667,4.151c-1.344,0.835-2.535,1.856-3.637,2.955c-0.099-0.018-0.206,0-0.269,0.105
		c-0.287,0.448-0.385,0.545-0.896,0.976c-0.332,0.273-1.102,0.774-1.998,1.196c-1.326,0.721-2.517,0.915-3.851,1.882
		c-0.564,0.457-1.066,1.117-1.075,1.855v0.053c0,0-0.588,1.62,0.412,2.413c0.999,0.793,3.868,1.985,6.181,0.067
		c0,0-0.45,1.014,0.843,1.399c1.293,0.385,2.908,0.4,3.761-1.179c0,0-0.617,1.036,1.029,1.624c1.646,0.588,2.332-0.726,2.332-0.726
		s0.019,0.873,1.518,1.049c1.499,0.176,1.822-0.767,1.822-0.767s0.999,1.561,3.35-0.438c0,0,1.193-0.453,2.793-1.138
		c0.734-0.176,1.236-0.44,1.792-0.809c0.833-0.704,1.084-1.134,1.738-1.68c0.43-0.361,1.021-0.616,1.469-0.774
		c1.55-0.528,3.323-0.44,4.667-1.469c0.6-0.431,1.048-1.038,1.308-1.715c0.188-0.431,0.358-1.152,0.179-2.014
		c0.098-0.044,0.179-0.141,0.134-0.273c-0.654-1.486-1.46-2.911-2.105-4.397c-0.098-0.668-0.152-1.311-0.269-2.111
		c-0.125-1.082-0.179-2.225-0.743-3.192c-0.985-1.337-1.46-2.445-1.998-3.843c-0.708-1.768-1.379-3.553-2.006-5.347
		c0.627-0.352,1.245-0.704,1.854-1.064c1.899-1.073,3.538-2.506,5.401-3.632c0.582-0.378,1.254-0.642,1.809-1.055
		c0.134-0.15,0.116-0.387,0-0.545c0.081-0.053,0.143-0.114,0.17-0.22c0.027-0.466-0.018-0.369-0.036-0.792
		c-1.576-4.916-4.828-10.034-7.874-15.188c-2.481-3.861-4.586-7.546-7.184-9.638c-1.191-0.941-2.571-2.471-3.216-3.307
		c-0.009-0.009-0.009-0.018-0.018-0.018c-0.009-0.026-0.018-0.053-0.027-0.079c0.089-0.097,0.125-0.237,0.045-0.361
		c-0.134-0.264-0.251-0.563-0.367-0.853c-0.287-1.126-0.573-2.242-1.173-3.245c-0.17-0.457-0.349-0.915-0.546-1.363
		c-1.191-2.946-3.207-6.701-5.446-9.559c-2.813-3.984-5.679-7.932-8.509-11.907c-1.478-2.119-2.795-4.344-4.506-6.288
		c-0.09-0.088-0.179-0.211-0.269-0.308c-0.86-1.275-1.63-2.533-2.114-3.843c-0.314-0.888-0.6-1.803-0.932-2.761
		c-1.048-2.797-2.203-5.839-3.171-8.179c-0.95-2.093-2.356-3.535-2.696-4.054c-1.093-1.882-2.284-3.702-3.52-5.496
		c3.09,1.636,6.405,2.867,9.772,3.878c0.95,0.273,1.926,0.457,2.885,0.616c0.036,0.053,0.063,0.114,0.098,0.167
		c0.296,0.176,0.699-0.123,0.6-0.457c-0.878-2.832-1.738-5.672-2.392-8.557c-0.116-0.563-0.277-1.055-0.439-1.477
		c0-0.009,0.009-0.009,0.018-0.018c0.349-0.334,0.188-0.959-0.296-1.082c-4.362-0.405-10.077-1.838-14.672-4.547
		c1.352-0.308,2.436-1.055,3.538-2.603c0.752-0.959,1.585-1.741,2.436-3.078c0.439-0.642,0.914-1.284,1.102-2.049
		c0.054-0.088,0-0.123,0.072-0.404c0.036-0.088,0.018-0.193,0-0.246v-0.026c0.054-0.044,0.098-0.123,0.045-0.202
		c-0.089-0.132-0.448-0.158-0.725-0.273c-0.77-0.281-1.281-0.519-2.132-0.967c-1.514-0.765-2.786-1.917-4.327-2.638
		c-1.129-0.501-1.863-0.493-3.162-0.677c-2.257-0.141-4.049-1.486-6.512-2.119c-1.379-0.246-1.971-0.95-2.66-1.908
		c-0.358-0.422-0.815-0.941-1.281-1.53c0.188-0.237,0.313-0.519,0.305-0.835c-0.063-0.378-0.134-0.554-0.116-0.633
		c0.036-0.238,0.403-0.607,0.511-0.994c0.179-0.484,0.08-0.985,0.054-1.477c-0.036-0.343,0.296-0.809,0.672-1.478
		c0.206-0.246,0.305-0.58,0.224-0.897c-0.018-0.07-0.045-0.141-0.071-0.211c0.224-0.176,0.394-0.387,0.573-0.589
		c0.054-0.035,0.072-0.053,0.072-0.062c0.045-0.026,0.08-0.053,0.161-0.079c0.009-0.009,0.018-0.009,0.027-0.018
		c0.009,0,0.009,0,0.009,0c0.116-0.027,0.224-0.114,0.331-0.158c1.111-0.695,4.291-1.882,5.419-3.544
		c0.26-0.404,0.376-0.871,0.475-1.337c0.134-0.51,0.385-0.985,0.538-1.486c0.161-0.686,0.26-1.319,0.349-1.935
		c1.147-1.178,2.32-2.331,3.565-3.412c0.52-0.554,1.003-1.196,1.182-1.935c0.197-0.739,0.116-1.574,0.323-2.234
		c0.152-0.58,0.958-1.038,1.343-1.688c0.054-0.194,0.197-0.492,0.269-0.783c0.869,0.07,1.738,0.097,2.607,0.018
		c0.206,0.018,0.296,0.018,0.502,0.105c0.197,0.106,0.376,0.229,0.537,0.352c0.439,0.519,0.887,1.029,1.362,1.539
		c0.107,0.141,0.94,0.941,1.048,0.941c0.045,0.088,0.134,0.158,0.188,0.238c0.43,0.317,1.003,0.721,1.362,1.337
		c0.394,0.624,0.609,1.372,1.119,1.917c1.191,1.082,2.446,1.917,3.816,2.876c1.335,0.923,3.045,2.014,3.905,2.19
		c0.475,0.167,1.917,0.088,2.015,0.114c1.173,0.264,2.356,0.545,3.574,0.475c0.179-0.026,0.376,0.018,0.537-0.044
		c0.09,0.026,0.179,0.044,0.26,0.07c0.752,0.167,1.523,0.246,2.284,0.325c2.033,0.141,3.959,0.668,6.181,0.106
		c1.594-0.431,3.045-1.249,4.559-1.9c1.594-0.624,3.054-1.486,4.505-2.374c1.881-1.178,2.902-1.539,4.093-3.104
		c0.949-1.302,2.562-3.509,3.233-5.409c0.788-1.838,1.129-4.441,1.747-5.927c0.591-1.258,1.487-2.374,1.988-3.667
		c0.179-0.923,0.188-1.618-0.053-2.322c-0.52-1.504-1.424-2.867-2.562-3.993c0.188-1.029,0.385-2.058,0.77-3.034
		c0.072-0.36,0.564-0.958,0.699-1.521c0.484-0.642,0.985-1.266,1.54-1.82c0.806-0.686,1.603-2.383,2.32-3.685
		c0.394-0.607,0.896-1.152,1.182-1.812c0.305-0.686,0.376-1.451,0.367-2.19c0.018-1.855-0.027-3.597,0.242-5.268
		C431.322,166.588,431.107,166.315,430.856,166.131z"/>
	<path style="fill:#6A656B;" d="M272.321,206.281c0.349-0.434,0.578-1.335-0.23-1.574c-0.145-0.085-0.374-0.128-0.587-0.136
		c0.068-0.094,0.136-0.187,0.213-0.281c0.153-0.187,0.332-0.374,0.4-0.612c0.111-0.442,0.051-1.012-0.23-1.404
		c0.383-0.442,0.578-1.114,0.23-1.633c-0.391-0.391-1.123-0.306-1.718-0.323c-0.604,0.068-0.953,0.34-1.344,0.595
		c-0.493,0.306-1.344,0.74-1.999,1.25c-0.025,0.026-0.051,0.051-0.068,0.077c-0.068,0.085-0.136,0.111-0.272,0.196
		c-0.936,0.374-2.05,0.374-3.156,0.451c-0.885,0.077-2.348-0.008-2.909-0.23c-0.502-0.153-0.774-0.434-1.31-0.723
		c-0.451-0.255-0.936-0.213-1.318-0.187c-0.468-0.051-0.672-0.187-0.868-0.383c0.374-0.714,1.012-1.335,1.642-1.99
		c0.587-0.63,1.463-1.948,1.812-2.28c0.766-0.774,1.778-1.727,0.885-2.535c0-0.008,0.017-0.017,0.017-0.025
		c0.017-0.111-0.051-0.187-0.136-0.238c-0.068-0.06-0.17-0.119-0.306-0.162c-0.748-0.221-1.48-0.315-2.339,0.162
		c-0.782,0.408-1.429,1.021-2.161,1.497c-0.944,0.663-1.65,1.021-2.841,1.548c-0.808,0.315-2.833,0.596-3.411,1.097
		c-1.097,0.604-1.565,1.71-2.059,2.45c-0.553,0.706-1.676,1.548-2.22,1.846c-0.885,0.391-1.233,0.868-2.714,1.259
		c-1.446,0.306-3.36,0.417-4.891,0.578c-0.212,0.027-0.422,0.064-0.632,0.102c-0.032-0.063-0.069-0.124-0.099-0.187
		c-0.06-0.153-0.119-0.315-0.179-0.468c-0.026-0.042-0.06-0.059-0.102-0.059c-0.17-0.349-0.332-0.689-0.502-1.038
		c0-0.025,0-0.085-0.017-0.153c-0.009-0.026-0.017-0.051-0.034-0.068c0-0.017,0-0.034-0.017-0.042c0.009-0.008,0.009-0.008,0-0.008
		c-0.008-0.017-0.017-0.043-0.025-0.051c-0.119-0.221-0.408-0.306-0.638-0.204c-0.502,0.213-0.944,0.63-1.352,0.748
		c-1.973,0.63-3.794,0.723-5.878,0.876c-1.65,0.085-3.292-0.213-4.934-0.187c-1.31,0.051-2.705,0.323-3.726,0.349
		c-0.876-0.008-1.973,0.042-2.475,0.128c-0.774,0.025-1.386-0.255-2.271-0.17c0.281-0.034-0.094-0.051-0.247-0.077
		c-0.315-0.042-0.629,0-0.902,0.162c0,0.008-0.128,0.051-0.196,0.085c-0.068,0.008-0.136,0.008-0.204,0
		c-0.017,0-0.042,0-0.059-0.008c-0.493-0.102-0.893-0.298-1.489-0.425c-0.008,0-0.017-0.008-0.026-0.008
		c-0.025-0.009-0.051-0.026-0.076-0.034c-0.025-0.068-0.051-0.136-0.077-0.204c-0.332-0.851-0.391-1.778-0.757-2.611
		c-0.621-1.31-1.471-2.076-2.271-3.428c-0.162-0.272-2.424-4.117-3.241-4.713c-0.187-0.544-0.425-1.063-0.817-1.497
		c-1.191-1.055-2.628-2.382-3.76-3.683c-0.613-0.63-1.132-1.37-1.88-1.846c-0.042-0.017-0.085-0.042-0.128-0.042v-0.008
		c0,0-0.035-0.013-0.077-0.022c0.031-0.02,0.061-0.04,0.092-0.06c0.28-0.183,0.56-0.368,0.849-0.535
		c0.124-0.071,0.271-0.173,0.421-0.262c0.024-0.025,0.025-0.058,0.033-0.091c0.064-0.013,0.117-0.018,0.17-0.018
		c0.068-0.032,0.136-0.058,0.2-0.072c0.264-0.058,0.473,0.099,0.699,0.213c0.304,0.153,0.607,0.308,0.908,0.465
		c0.266,0.139,0.532,0.277,0.798,0.416c-0.12,0.037-0.233,0.086-0.315,0.18c-0.14,0.294,0.202,0.371,0.425,0.364
		c0.041-0.007,0.087-0.009,0.133-0.012c-0.158,0.065-0.313,0.137-0.464,0.221c-0.025,0.026-0.03,0.068-0.006,0.096
		c0.263,0.076,0.566,0.095,0.863,0.065c-0.027,0.021-0.066,0.034-0.09,0.057c-0.113,0.034-0.208,0.187-0.059,0.244
		c0.203,0.067,0.423,0.071,0.647,0.054c-0.155,0.282-0.019,0.594,0.457,0.475c0.336-0.146,0.634-0.372,0.915-0.613
		c-0.104,0.104-0.208,0.207-0.293,0.327c-0.043,0.086-0.011,0.206,0.069,0.261c0.14,0.119,0.298-0.013,0.421-0.094
		c0.13-0.103,0.252-0.219,0.374-0.333c-0.166,0.248-0.209,0.456,0.088,0.513c0.339-0.147,0.547-0.46,0.736-0.782
		c0.004,0.004,0.008,0.007,0.012,0.011c-0.132,0.202-0.257,0.407-0.359,0.625c-0.028,0.057-0.038,0.14,0.022,0.181
		c0.058,0.05,0.135,0.016,0.183-0.032c0.246-0.25,0.431-0.551,0.612-0.852c-0.008,0.057-0.005,0.116,0.028,0.174
		c0.25,0.205,0.45-0.121,0.592-0.513c0.01,0.06,0.044,0.102,0.117,0.109c0.266-0.18,0.336-0.888,0.589-1.336
		c0.031-0.064,0.065-0.308,0.066-0.525c0.064-0.185,0.111-0.376,0.149-0.569c0.006-0.03,0.012-0.059,0.017-0.089
		c0.034-0.191,0.061-0.384,0.079-0.576c0.003-0.033,0.019-0.056,0.027-0.085c0.035,0.108,0.063,0.216,0.083,0.321
		c0.004,0.032,0.004,0.063,0.007,0.095c0.004,0.393,0.333,0.275,0.246-0.035c-0.032-0.363-0.045-0.727-0.05-1.091
		c0.081,0.332,0.183,0.541,0.303,0.319c-0.063-0.428-0.12-0.803-0.198-1.192c0.078,0.211,0.169,0.389,0.269,0.411
		c-0.008-0.352-0.063-0.76-0.201-1.096c0.004-0.007,0.009-0.016,0.013-0.024c0.057,0.118,0.112,0.251,0.141,0.282
		c0.062,0.093,0.218,0.059,0.244-0.048c-0.008-0.155-0.074-0.361-0.179-0.481c0.152-0.115,0.501-0.313,0.509-0.321
		c0.366-0.179,0.213-0.434,0.162-0.749c-0.017,0-0.017-0.085-0.025-0.179c0.366-0.034,0.885-0.179,1.046-0.476
		c0.068-0.162,0.102-0.323,0.119-0.502c0.017,0,0.128-0.298,0.153-0.468c0.289-0.119,0.663-0.196,0.927-0.315
		c0.553-0.153,1.046-0.136,1.335-0.578c0.23-0.425,0.111-0.613,0.051-1.029c-0.255-0.8-0.315-1.676-0.468-2.535
		c-0.042-0.561-0.221-1.429,0-2.05c0.009-0.008,0.017-0.008,0.017-0.017c0.119-0.162,0.068-0.153,0.136-0.255
		c0.068-0.077,0.085-0.153,0.077-0.23c0.085-0.085,0.17-0.179,0.255-0.272c0.111-0.094,0.612-0.612,0.68-0.961
		c0.009,0,0.077-0.085,0.085-0.17c0.008-0.025-0.008-0.187-0.017-0.247c-0.034-0.102-0.051-0.145-0.059-0.17
		c0.008,0,0.008,0,0.008,0c0-0.008,0-0.008-0.008-0.008c0,0,0,0,0-0.008c-0.017-0.034-0.034-0.06-0.043-0.077
		c-0.059-0.366,0.008-0.859,0.025-1.029c0.153-0.766,0.034-1.616,0.17-2.322c0.145-0.4,0.076-1.182,0.026-1.82
		c-0.043-1.378,0.025-2.756-0.017-4.134c-0.017-0.247,0.017-0.451-0.077-0.595c0.017-1.514-0.034-3.054-0.595-4.304
		c-0.349-0.697-0.791-1.216-1.353-1.769c-0.774-0.689-1.812-1.217-2.492-1.803c-0.902-0.706-1.676-1.454-2.679-1.99
		c-1.225-0.553-2.407-1.285-3.726-1.574c-1.336-0.23-2.713-0.255-4.202-0.451c-1.582-0.238-3.258-0.349-4.704,0.451
		c-1.055,0.459-2.05,1.429-2.816,1.897c-0.03,0.03-0.067,0.053-0.102,0.078c-0.154,0.034-0.267,0.03-0.332,0.046
		c-0.67,0.011-1.52,0.005-2.32,0.497c-1.45,1.032-2.562,2.665-3.782,4.065c-0.926,0.983-1.824,2.121-1.968,3.51
		c-0.007,0.108,0,0.217-0.003,0.325c-0.058,0.526-0.031,1.066,0.042,1.6c0.05,0.765,0.104,1.53,0.03,2.295
		c-0.033,0.464-0.07,0.853-0.133,1.249c-0.002,0.003-0.003,0.006-0.005,0.009c-0.102,0.171-0.199,0.336-0.287,0.5
		c-0.035,0.066-0.061,0.132-0.094,0.198c-0.003,0.007-0.006,0.013-0.009,0.019c-0.194-0.134-0.396-0.258-0.606-0.371
		c-0.544-0.323-1.114,0.085-1.531,0.442c-0.655,0.459-1.268,0.97-1.837,1.557c-0.017,0.017-0.026,0.025-0.034,0.042
		c-0.008,0.008-0.017,0.008-0.034,0.025c0,0,0,0.009-0.009,0.009c-1.318-1.259-2.586-2.382-4.406-3.292
		c-2.195-1.012-4.661-1.199-6.916-2.042c-0.944-0.289-3.581-1.795-5.214-2.637c-1.131-0.553-2.305-1.157-3.598-1.182
		c-2.407,0.042-5.07,0.74-7.57,0.714c-0.714-0.042-1.506-0.298-2.322-0.289c-0.621,0-1.097,0.289-1.599,0.493
		c-0.306,0.196-0.723,0.272-1.123,0.527c-0.476-0.315-0.987-0.595-1.557-0.783c-2.45-0.893-4.678-2.688-7.409-3.105
		c-0.689-0.145-1.336,0.162-1.752,0.527c-0.978,0.706-1.591,0.766-2.645,1.267c-0.459,0.255-0.527,0.281-0.987,0.765
		c-0.017,0.017-0.034,0.043-0.051,0.068c-2.492-1.361-5.036-2.662-7.741-3.377c-1.055-0.23-2.135-0.366-3.215-0.349
		c-0.527-0.017-0.868,0.017-1.318-0.153c-0.026-0.017-0.077-0.042-0.102-0.059c-0.009,0-0.009-0.009-0.017-0.009
		c-0.315-0.264-0.247-0.247-0.561-0.468c-0.017-0.043-0.034-0.094-0.077-0.136c-0.417-0.408-0.953-0.689-1.531-0.783
		c-0.655-0.111-1.233-0.162-1.48-0.289c-0.604-0.349-1.514-1.191-2.356-1.514c-1.335-0.655-3.071-0.817-4.381-0.953
		c-1.786-0.272-3.428-0.834-5.121-1.165c-0.544-0.187-0.655-0.366-1.157-0.34c0.145-0.017,0.051-0.017-0.034-0.017
		c-0.008,0-0.025-0.008-0.034-0.008c-0.076-0.034-0.145-0.059-0.145-0.059c-0.817-0.408-1.429-0.825-2.467-0.723
		c-1.174,0.221-1.939,0.834-2.756,1.412c-0.238,0.085-0.366,0.272-0.374,0.442c-0.723,0.587-1.514,1.421-2.237,2.084
		c-0.459,0.476-1.097,0.851-1.233,1.548c-0.102,0.442,0.034,0.885,0.094,1.318c0.034,0.026,0.009,1.131,0.093,1.497
		c0.034,0.204,0.136,0.4,0.289,0.544c0.008,0.008,0.017,0.017,0.025,0.025c0.043,0.051,0.136,0.102,0.213,0.145
		c-0.051,0.085-0.102,0.179-0.153,0.272c-0.179,0.697,0.008,1.063,0.119,1.752c0.076,0.323,0.076,2.195,1.131,2.697
		c0.026,0.094,0.085,0.179,0.196,0.23c0.051,0.043,0.153,0.085,0.264,0.119c-0.145,0.247-0.23,0.425-0.23,0.493
		c-0.145,0.57,0.281,1.055,0.434,1.216c0.298,0.281,0.596,0.927,0.825,1.148c0.026,0.017,0.043,0.017,0.068,0.025
		c0.255,0.442,0.34,0.893,0.936,1.174c0.306,0.119,0.638,0.051,0.944-0.009c0.034-0.017,0.068-0.025,0.102-0.025
		c-0.008,0.076-0.017,0.17-0.017,0.264c0.196,1.574,0.111,2.867,1.905,2.79c0.476,0.017,1.148-0.068,1.284-0.204
		c0.06-0.043,0.094-0.094,0.119-0.162c0.043,0.23,0.111,0.476,0.187,0.74c0.085,0.213,0.17,0.468,0.349,0.621
		c0,0.026,0.255,0.247,0.391,0.332c0.961,0.544,1.735,0.255,2.518,0.255c0.417-0.077,1.931,0.034,2.662-0.553
		c0.196-0.136,0.34-0.306,0.468-0.493c0.042-0.025,0.093-0.068,0.128-0.128c0.017-0.034,0.034-0.068,0.051-0.102
		c0.247-0.059,0.34-0.306,0.289-0.519c0.332-0.51,0.672-0.757,0.885-0.885c0.698-0.451,0.817-0.425,1.676-0.723
		c0.604-0.272,1.029-0.519,1.42-0.791c0.085,0.06,0.179,0.085,0.289,0.051c0.919-0.179,0.706-0.162,1.548,0.051
		c0.026,0.008,0.06,0.008,0.085,0.017c0.017,0.017,0.085,0.051,0.221,0.119c0.366,0.196,1.182,0.978,1.812,1.659
		c1.225,0.995,2.646,1.803,4.185,2.194c0.425,0.102,0.851,0.213,1.276,0.315c0.919,0.68,1.718,1.531,2.526,2.433
		c0.119,0.595,0.23,1.046,0.298,1.565c-0.085,2.841,2.118,5.606,2.96,7.902c0.238,0.765,0.817,2.263,1.208,2.56
		c0.094,0.145,0.111,0.136,0.102,0.076c0.366,0.485,1.021,0.451,1.446,0.476c0.604-0.008,0.596-0.025,1.225,0.051
		c0.868,0.17,1.769,0.298,2.645,0.442c-0.017,0.093,0,0.196,0.077,0.272c0.57,0.281,1.259,0.323,1.863,0.553
		c0.927,0.323,2.509,0.893,2.824,1.063c0.434,0.23,0.902,0.451,1.522,0.578c0.349,0.059,0.298,0,0.647,0.128
		c0.434,0.204,0.944,0.502,1.216,0.68c0.442,0.323,0.936,0.817,1.157,0.97c0.264,0.196,0.604,0.306,0.936,0.298
		c-0.008,0.068-0.008,0.136-0.017,0.204c-0.017,0.034-0.034,0.077-0.034,0.119c0,0.076,0.017,0.136,0.017,0.204
		c-0.017,0.459,0,0.919,0.085,1.352c0.289,1.157,0.502,2.339,0.783,3.488c0.085,0.459,0.17,0.919,0.128,1.335
		c-0.085,1.004-0.476,2.679-0.136,4.015c0.655,1.633,1.625,3.071,2.025,4.678c0.077,0.213-0.357,0.902-0.255,1.352
		c0.034,0.136,0.119,0.374,0.23,0.587c0.085,0.383,0.043,0.672-0.034,0.944c-0.128,0.646-0.417,1.608-0.63,2.365
		c-0.936,2.671-2.135,5.231-3.011,7.919c-0.247,0.774-0.153,1.591-0.051,2.356c0.111,0.723,0.179,1.463,0.51,2.126
		c0.247,0.527,0.791,1.361,0.791,1.574c0.264,0.791,0.468,1.599,0.74,2.28c0.102,0.221,0.247,0.425,0.374,0.63
		c0.153,0.595,0.323,1.25,0.417,1.786c0.332,2.016-0.647,4.483-1.514,6.984c-0.544,1.25-0.987,2.56-0.502,4.015
		c0.493,1.021,1.404,1.803,2.186,2.62c0.076,0.136,0.136,0.281,0.17,0.425c0.094,0.332,0.034,0.936,0.315,1.386
		c0.204,0.315,0.527,0.502,0.817,0.723c0.162,0.298,0.162,0.298,0.145,0.817c-0.221,0.834,0.145,3.003,0.204,4.287
		c-0.025,0.094-0.025,0.085-0.042,0.111v0.008c-0.009,0.017-0.009,0.025-0.017,0.034c-0.017,0.034-0.026,0.042-0.009,0.042
		c-0.145,0.213-0.298,0.579-0.306,0.97c0.026,0.349,0.034,0.553,0.068,0.689c-0.009,0.213-0.051,0.485-0.111,0.783
		c-0.451,0.434-0.902,0.97-1.25,1.276c-1.31,1.225-2.126,2.841-2.986,4.398c-0.201,0.376-0.387,0.69-0.561,1.121
		c-3.685,1.834-7.61,3.008-10.874,1.973c-0.579-0.186-1.806-1.14-2.256,0.508c-0.204,1.512-0.13,3.055-0.299,4.577
		c0.022,0.902-0.152,2.047,0.583,2.71c2.41,0.722,5.072,0.779,7.621,0.414c-2.066,2.695-4.037,5.522-6.132,8.254
		c-2.033,2.807-4.619,5.495-6.448,8.651c-0.868,1.718-1.216,3.658-1.233,5.572c-0.008,0.136-0.008,0.281,0.085,0.357
		c0.076,0.111,0.213,0.187,0.366,0.136c0.213-0.034,0.417-0.043,0.902,0.077c1.803,0.561,3.547,1.318,5.333,1.973
		c3.19,1.157,6.354,2.433,9.331,4.083c2.246,1.199,4.296,2.739,6.516,3.989c0.204,0.145,1.276,0.604,1.276,0.519
		c0.264,0.153,0.68,0,0.74,0.017c0.383-0.128,0.425-0.553,0.408-0.902c0-0.017,0.009-0.034,0.009-0.051
		c0.323-0.255,0.629-0.425,1.029-0.553c0.936-0.332,1.846-0.74,2.73-1.182c1.642,2.484,3.266,4.985,4.738,7.656
		c0,0.247,0.085,0.51,0.076,0.749c0.034,0.681,0.102,1.37,0.06,2.05c-0.111,1.463-2.935,3.088-5.078,4.857
		c-0.774,0.74-0.944,1.199-1.412,1.948c-0.008,0-0.025,0.017-0.051,0.094c-1.412,1.701-4.772,4.245-7.094,6.073
		c-1.752,1.335-4.21,3.232-6.312,4.585c-1.625,1.063-3.436,2.11-4.406,3.853c-0.825,1.608-1.352,3.241-2.475,4.959
		c-0.264,0.425-0.97,1.012-1.387,1.54c-0.043,0.085-0.034,0.17,0.009,0.247c-0.34,0.425-0.689,0.842-1.004,1.369
		c-0.383,0.723-0.663,1.54-0.927,2.22c-0.723,1.829-1.582,3.53-2.747,5.444c-0.494,0.672-0.689,0.995-1.285,1.557
		c-0.851,0.766-2.135,1.429-3.241,2.178c-2.339,1.871-4.695,4.091-6.865,5.691c-0.306,0.213-0.553,0.502-0.68,0.851
		c-0.026,0.068-0.034,0.102-0.043,0.119c0,0,0,0-0.009,0.009c-0.06,0.162-0.06,0.349-0.068,0.519
		c0.025,0.281-0.009,0.655,0.255,0.825c0.068,0.043,0.145,0.051,0.213,0.043c0.094,0.119,0.221,0.23,0.298,0.349
		c0.008,0.009,0.017,0.017,0.017,0.017c1.344,1.846,3.079,3.351,4.593,5.036c1.335,1.267,2.475,2.161,3.947,3.173
		c0.604,0.383,1.2,0.749,1.693,1.08c-1.846,2.977-3.59,6.022-5.172,9.144c-0.408,0.655-0.825,1.293-1.25,1.931
		c-0.23,0.349-0.459,0.638-0.672,0.927c-0.204,0.187-0.417,0.374-0.621,0.57c-1.684,1.616-3.751,2.969-4.934,5.036
		c-0.519,1.437-1.055,2.816-1.693,4.006c-1.548,2.458-3.028,4.959-4.593,7.409c-0.621,1.063-1.378,2.084-1.744,3.266
		c-0.374,1.259-0.272,2.679,0.374,3.683c0.459,0.715,1.063,1.344,1.863,1.659c0.017,0,0.077,0.025,0.162,0.059
		c2.475,1.395,5.895,0.442,8.183,1.029c1.361,0.306,3.088,0.919,3.539,0.868c2.713,0.238,5.469,0.417,8.2,0.306
		c0.766-0.111,0.936-0.306,1.438-0.681c0.077,0.136,0.221,0.281,0.451,0.442c0.791,0.459,1.744,0.63,2.645,0.485
		c0.527-0.128,0.995-0.468,1.293-0.927c0.034,0.06,0.085,0.145,0.128,0.187c0.127,0.153,0.289,0.255,0.451,0.366
		c0.808,0.553,1.829,0.834,2.807,0.646c0.587-0.094,1.157-0.332,1.591-0.74c0.059-0.068,0.119-0.136,0.179-0.204
		c0.128,0.128,0.298,0.247,0.451,0.357c0.859,0.519,2.22,0.646,3.317,0.196c0.357-0.162,0.612-0.459,0.825-0.783
		c0.23,0.281,0.646,0.536,0.868,0.621c0.689,0.298,1.446,0.332,2.186,0.238c0.57-0.068,1.165-0.196,1.65-0.527
		c0.102-0.068,0.204-0.153,0.306-0.238c1.905,0.808,4.602-0.425,5.197-2.756c0.068-0.289,0.025-1.106-0.043-1.378
		c-0.051-0.383-0.17-0.987-0.587-1.37c-1.404-0.953-3.13,0.026-4.16-0.553c-0.689-0.204-1.795-1.412-2.824-1.718
		c-1.965-0.459-3.522-0.987-5.112-2.28c-1.523-1.08-2.977-3.19-4.627-4.491c-1.225-1.021-3.054-1.922-4.806-2.773
		c0.791-1.888,1.395-3.607,2.577-5.563c1.905-2.509,3.675-5.121,5.427-7.732c1.616,1.319,3.249,2.628,4.951,3.845
		c0.987,0.689,2.041,1.267,3.096,1.846c0.689,0.366,1.387,0.834,2.144,1.012c0.17,0.145,0.408,0.204,0.621,0.077
		c0.357-0.17,0.595-0.502,0.799-0.834c1.361-2.331,3.539-4.73,4.338-7.732c0.442-1.548,0.629-2.169,1.565-3.726
		c1.812-2.203,4.798-4.627,7.196-6.771c1.131-0.97,2.705-2.356,3.394-3.232c1.429-1.965,2.731-4.023,3.93-6.133
		c2.501-4.006,4.1-8.149,6.72-12.07c1.251-1.812,2.586-3.496,4.1-5.129c2.016-1.65,3.972-3.275,5.776-4.738
		c1.846-1.284,3.513-1.667,4.797-3.564c2.203-3.275,3.581-7.145,5.657-10.437c0.553-0.638,1.31-1.522,1.684-2.399
		c0.238-0.502,0.425-1.038,0.604-1.574c0.025-0.026,0.051-0.051,0.059-0.094c0.043-0.179,0.077-0.34,0.119-0.51
		c0.042-0.153,0.094-0.298,0.128-0.442c0-0.026-0.017-0.043-0.025-0.06c0.119-0.672,0.195-1.327,0.153-2.092
		c-0.102-1.097-0.527-1.991-0.842-2.79c-0.349-1.829-0.357-3.879-0.476-5.895c0.272,0.238,0.561,0.493,0.825,0.715
		c1.165,0.868,2.39,1.65,3.471,2.569c2.024,1.599,3.913,3.402,6.516,4.134c0.459,0.136,0.919,0.255,1.378,0.366
		c1.599,0.57,3.164,1.123,4.551,1.829c0.306,0.145,0.476,0.383,0.783,0.595c0.553,0.34,1.055,0.748,1.616,1.063
		c0.57,0.298,0.816,0.315,1.233,0.638c0.766,0.519,1.514,1.608,2.263,2.407c0.085,0.085,0.179,0.17,0.272,0.264
		c0.774,2.722,1.795,5.146,1.574,7.877c-0.102,1.684-0.085,3.402,0.391,5.036c0.562,1.608,1.523,3.045,2.178,4.627
		c0.8,1.837,1.514,3.76,2.203,5.674c0.298,0.757,0.459,1.599,0.944,2.271c0.179,0.162,0.349,0.374,0.544,0.544
		c0.017,0.068,0.059,0.128,0.136,0.17c0.323,0.366,0.842,0.587,1.412,0.868c0.51,0.289,0.987,0.646,1.514,0.91
		c1.812,0.859,3.964,1.829,5.206,2.901c1.063,0.978,1.71,2.033,2.756,2.807c0.076,1.319,0.102,2.603-0.043,3.751
		c-0.485,2.331-0.281,4.721-0.391,7.094c-0.051,0.578-0.23,1.387-0.213,1.795c-0.008,0.578-0.238,1.123-0.468,1.744
		c-0.187,0.749-0.247,1.591,0.068,2.314c-0.008,0-0.017,0.017-0.025,0.017c0.094,0.179,0.187,0.323,0.289,0.459
		c0.085,0.128,0.187,0.255,0.306,0.34c1.131,1.072,2.85,0.655,5.325,0.868c0.783,0.17,1.285,0.085,2.101,0.451
		c1.029,0.468,2.424,1.489,3.7,1.897c1.676,0.476,3.649,0.417,5.257,0.63c0.902,0.119,1.795,0.417,2.705,0.476
		c0.009,0.009,0.009,0.017,0.017,0.026c1.046,0.57,3.989,1.004,5.248,0.272c0.009,0,0.009,0,0.017-0.008
		c0.026-0.009,0.06-0.017,0.094-0.043c0,0,0,0,0.009,0c0.587-0.247,0.613-0.094,1.157-0.51c0.289-0.272,0.366-0.663,0.374-0.927
		c0.009-0.009,0.009-0.017,0.017-0.034c0.026-0.051,0.17-0.298,0.247-0.366c0.017-0.026,0.034-0.051,0.051-0.068
		c0.009-0.017,0.06-0.068,0.077-0.085c0.017-0.008,0.026-0.017,0.034-0.025c0.008,0,0.025-0.009,0.025-0.009
		c0.043,0,0.077-0.008,0.111-0.017c0.621,0,0.876-0.111,1.353-0.425c0.459-0.315,0.57-0.578,0.885-0.944
		c0.162-0.34,0.119-0.238,0.17-0.638c0.009-0.008,0.017-0.008,0.017-0.017c0.034-0.017,0.077-0.051,0.026-0.025
		c0.06-0.043,0.153-0.111,0.255-0.196c-0.008,0-0.017-0.008-0.025-0.008c0.17-0.153,0.315-0.349,0.315-0.621
		c0.026-0.196-0.289-0.621-0.289-0.595c-0.059-0.085-0.196-0.298-0.374-0.408c-0.34-0.204-0.749-0.094-1.123-0.128
		c-0.502-0.119-1.234-0.459-1.888-0.646c-0.042-0.009-0.085-0.026-0.128-0.034c-0.008-0.017-0.025-0.026-0.034-0.034
		c-0.026-0.026-0.034-0.068-0.051-0.094c-0.723-0.459-1.446-0.91-2.263-1.191c-1.446-0.493-2.577-0.723-3.751-1.454
		c-0.919-0.544-1.31-0.808-2.059-1.591c-0.357-0.383-0.51-0.604-0.783-0.953c-0.051-0.051-0.127-0.034-0.178,0
		c-0.017-0.017-0.034-0.043-0.043-0.068c-0.952-1.191-2.109-2.399-2.739-3.666c-0.255-0.723-0.264-0.842-0.315-1.421
		c-0.094-2.11-0.264-4.211-0.408-6.32c1.301-0.953,2.56-2.033,3.326-3.47c0.757-1.548,0.715-4.338,0.612-7.366
		c-0.204-4.593-0.357-9.204,0.545-13.482c0.247-1.497,0.196-2.144,0.646-3.666c0.553-1.71,1.25-3.428,1.276-5.24
		c0.008-2.212-0.111-3.913-0.57-5.861c0.111-1.871,0.102-3.76,0.17-5.64c0.128-1.914-0.953-3.003-1.956-4.627
		c-1.846-2.586-3.471-5.478-4.874-8.225c-0.842-1.744-2.662-3.028-4.406-4.304c-1.769-1.284-3.164-2.679-5.086-4.474
		c-1.336-1.267-2.697-2.526-4.211-3.59c-1.471-1.029-2.679-1.735-3.862-2.858c-1.514-1.395-2.467-3.071-4.364-4.066
		c-1.642-0.987-3.343-1.888-4.993-2.858c0.281-0.025,0.57-0.042,0.859-0.051c1.072-0.102,1.803,0.009,2.85-0.145
		c0.561-0.255,0.204-0.672-0.221-0.859c-2.212-1.344-4.466-2.815-6.346-4.449c-0.978-0.825-1.897-1.727-2.841-2.595
		c0.238-0.085,0.476-0.162,0.723-0.23c6.056-1.906,12.521-2.11,17.718,1.14c0.919,0.374,1.455,1.693,2.543,0.238
		c1.021-1.659,2.203-3.258,2.935-4.381c0.255-0.374-0.008-0.766-0.315-0.808c-0.008-0.009-0.025-0.017-0.042-0.026
		c-0.859-0.629-1.855-1.055-2.816-1.497c-1.888-0.791-3.794-1.582-5.818-1.897c-2.246-0.383-4.534-0.281-6.771,0.034
		c-4.1,0.391-8.379,2.186-11.747,3.887c-0.213,0.077-0.417,0.136-0.629,0.204c-1.471-1.004-2.994-1.931-4.534-2.815
		c-3.972-2.288-7.775-3.496-11.679-5.401c-0.145-0.068-0.281-0.136-0.425-0.204c0.128-0.817-0.119-1.642-0.247-2.45
		c-0.204-0.953-0.374-2.433-0.978-2.969c-0.34-0.23-0.621-0.476-1.012-0.766c0.119-0.026,0.255-0.06,0.417-0.119
		c1.063-0.57,1.701-1.327,2.73-1.965c0.842-0.587,2.152-1.335,2.714-1.897c0.604-0.74,1.08-1.616,1.31-2.543
		c0.136-0.638,0.17-1.131,0.264-1.778c0.136-1.182-0.136-3.13,0-4.211c0.179-0.323,0.323-0.663,0.459-1.021
		c0.646,0,1.301-0.085,1.948-0.051c0.332,0.017,0.714,0.102,1.267,0.094c1.046-0.06,1.871-0.306,2.909-0.128
		c0.8,0.145,1.991,0.51,2.475,0.74c1.242,0.646,2.85,1.216,3.938,1.301c1.301,0.153,2.467-0.553,3.683-1.182
		c1.191-0.638,2.356-1.225,3.326-1.599c0.17-0.077,1.182-0.425,1.939-0.766c0.536-0.128,1.055-0.281,1.574-0.493
		c4.814-1.463,9.723-2.645,14.512-4.185c0.485-0.204,1.165-0.289,1.395-0.816c0-2.101-1.182-4.576-1.446-6.499
		c0.136-0.077,0.23-0.264,0.128-0.417c-0.085-0.128-0.145-0.272-0.204-0.425c-0.015-0.194-0.027-0.378-0.038-0.569
		c1.538-0.652,3.024-1.429,4.512-2.161c1.182-0.655,2.475-1.165,3.641-1.846c0.842,0.085,2.135,0.357,3.283,0.357
		c0.698,0.042,1.268,0.34,2.203,0.519c1.463,0.153,2.909-0.289,4.355-0.374c1.557-0.128,3.088,0.136,4.823-0.4
		c1.25-0.374,3.666-2.305,4.772-2.867c0.595-0.485,1.378-0.63,1.752-1.54c0.034-0.221,0.561-0.868,0.238-1.285
		c-0.094-0.093-0.196-0.179-0.332-0.213c0.017,0.008,0.034,0.008,0.043,0.008c-0.009-0.008-0.017-0.008-0.034-0.017
		C271.683,207.335,271.998,206.782,272.321,206.281z"/>
</g>
</svg>
